Coordinates
version=1
nRows=11
nColumns=63
inDegrees=yes

Units are S.I. units (second, meters, Newtons, ...)
If the header above contains a line with 'inDegrees', this indicates whether rotational values are in degrees (yes) or radians (no).

endheader
time	pelvis_tilt	pelvis_list	pelvis_rotation	pelvis_tx	pelvis_ty	pelvis_tz	hip_flexion_r	hip_adduction_r	hip_rotation_r	knee_angle_r	knee_angle_r_beta	ankle_angle_r	subtalar_angle_r	mtp_angle_r	hip_flexion_l	hip_adduction_l	hip_rotation_l	knee_angle_l	knee_angle_l_beta	ankle_angle_l	subtalar_angle_l	mtp_angle_l	L5_S1_Flex_Ext	L5_S1_Lat_Bending	L5_S1_axial_rotation	L4_L5_Flex_Ext	L4_L5_Lat_Bending	L4_L5_axial_rotation	L3_L4_Flex_Ext	L3_L4_Lat_Bending	L3_L4_axial_rotation	L2_L3_Flex_Ext	L2_L3_Lat_Bending	L2_L3_axial_rotation	L1_L2_Flex_Ext	L1_L2_Lat_Bending	L1_L2_axial_rotation	L1_T12_Flex_Ext	L1_T12_Lat_Bending	L1_T12_axial_rotation	Abs_r3	Abs_r2	Abs_r1	Abs_t1	Abs_t2	neck_flexion	neck_bending	neck_rotation	arm_flex_r	arm_add_r	arm_rot_r	elbow_flex_r	pro_sup_r	wrist_flex_r	wrist_dev_r	arm_flex_l	arm_add_l	arm_rot_l	elbow_flex_l	pro_sup_l	wrist_flex_l	wrist_dev_l
2.338983	5.940964	0.829062	79.364842	0.312413	1.066150	0.407552	-3.304816	-2.560383	-0.515520	9.940152	0.173488	29.511483	15.231302	0.000000	-6.107422	1.209287	-3.734177	6.106134	0.106572	28.073790	-12.005788	0.000000	-0.291896	1.240181	1.818445	-0.542080	1.649441	1.932098	-0.479555	3.015376	1.932098	-0.333608	3.015376	1.591139	-0.271054	2.528977	1.477486	-0.166789	1.921041	1.363834	-2.084982	14.029176	10.113644	0.000000	0.000000	25.546072	-6.333509	22.206451	2.609232	-20.254152	107.912289	9.613943	4.599614	-7.357857	-11.094122	43.219000	-6.964398	4.473912	139.277894	89.056948	7.326652	8.353703
2.355932	5.857809	0.878621	79.030852	0.313036	1.066175	0.407025	-3.345392	-2.660095	-0.159295	9.935301	0.173404	29.551483	15.192496	0.000000	-6.328646	1.341627	-3.958113	5.874181	0.102524	27.867825	-12.224018	0.000000	-0.293492	1.226701	1.851552	-0.545045	1.631513	1.967274	-0.482179	2.982602	1.967274	-0.335432	2.982602	1.620108	-0.272537	2.501489	1.504386	-0.167702	1.900160	1.388664	-2.096387	13.876691	10.297776	0.000000	0.000000	25.512734	-6.232449	22.255705	2.620414	-20.168510	108.075489	9.598108	4.605827	-7.418580	-11.097334	42.776293	-6.813954	4.619033	139.314928	89.088022	7.664494	7.074681
2.372881	5.759271	0.880829	78.744645	0.313601	1.066113	0.406446	-3.348354	-2.769072	0.101442	9.934680	0.173393	29.549699	15.204217	0.000000	-6.508959	1.481155	-4.068277	5.623171	0.098143	27.625130	-12.524679	0.000000	-0.290974	1.212012	1.860883	-0.540368	1.611976	1.977188	-0.478041	2.946886	1.977188	-0.332554	2.946886	1.628272	-0.270198	2.471535	1.511967	-0.166263	1.877406	1.395662	-2.078398	13.710521	10.349671	0.000000	0.000000	25.533450	-6.056285	22.429549	2.687392	-20.072002	108.368549	9.578912	4.591173	-7.505452	-11.096347	42.294790	-6.703312	4.690818	139.464030	89.119745	8.126288	5.725647
2.389831	5.644656	0.843064	78.511143	0.314103	1.065969	0.405883	-3.316588	-2.887168	0.290932	9.937280	0.173438	29.520393	15.236821	0.000000	-6.646456	1.629181	-4.065246	5.357804	0.093511	27.363383	-12.889931	0.000000	-0.285458	1.195958	1.849657	-0.530124	1.590624	1.965260	-0.468979	2.907852	1.965260	-0.326250	2.907852	1.618450	-0.265076	2.438797	1.502846	-0.163111	1.852539	1.387242	-2.038998	13.528913	10.287235	0.000000	0.000000	25.606682	-5.819572	22.698934	2.805255	-19.964027	108.767390	9.555241	4.571365	-7.613964	-11.081983	41.812584	-6.646719	4.719330	139.694776	89.152368	8.620938	4.342207
2.406780	5.513964	0.774105	78.358885	0.314506	1.065748	0.405387	-3.256708	-3.014435	0.374515	9.943827	0.173553	29.479973	15.295466	0.000000	-6.741401	1.783340	-3.906365	5.083538	0.088724	27.087402	-13.326776	0.000000	-0.277707	1.178424	1.820310	-0.515729	1.567304	1.934079	-0.456244	2.865219	1.934079	-0.317391	2.865219	1.592771	-0.257878	2.403042	1.479002	-0.158682	1.825378	1.365232	-1.983631	13.330565	10.124018	0.000000	0.000000	25.727584	-5.536203	23.022256	2.955111	-19.845948	109.207952	9.529707	4.551681	-7.732399	-11.052887	41.363782	-6.637382	4.727683	139.958355	89.183849	9.097519	2.950758
2.423729	5.372923	0.680369	78.309028	0.314792	1.065456	0.405013	-3.175460	-3.142468	0.354155	9.947458	0.173616	29.444152	15.362800	0.000000	-6.786545	1.934790	-3.615615	4.820383	0.084132	26.822726	-13.779685	0.000000	-0.268461	1.160172	1.776019	-0.498560	1.543029	1.887020	-0.441055	2.820842	1.887020	-0.306824	2.820842	1.554016	-0.249293	2.365823	1.443015	-0.153399	1.797106	1.332014	-1.917593	13.124097	9.877684	0.000000	0.000000	25.888776	-5.232581	23.377407	3.123291	-19.716088	109.716599	9.490651	4.501290	-7.854046	-11.004876	40.985519	-6.667008	4.731890	140.205257	89.213245	9.502994	1.596925
2.440678	5.231525	0.572041	78.334574	0.314977	1.065115	0.404800	-3.074383	-3.264849	0.257134	9.954035	0.173731	29.421061	15.444205	0.000000	-6.781780	2.068005	-3.406503	4.598509	0.080259	26.651161	-13.992271	0.000000	-0.259350	1.142299	1.729636	-0.481640	1.519257	1.837738	-0.426087	2.777385	1.837738	-0.296412	2.777385	1.513431	-0.240833	2.329375	1.405329	-0.148193	1.769421	1.297227	-1.852515	12.921911	9.619715	0.000000	0.000000	26.081332	-4.949606	23.712966	3.276686	-19.588730	110.075455	9.453792	4.507858	-7.957928	-10.943285	40.713739	-6.715032	4.775574	140.383845	89.239314	9.728944	0.322495
2.457627	5.097602	0.453743	78.460918	0.315013	1.064736	0.404762	-2.961350	-3.373880	0.059538	9.960910	0.173851	29.420220	15.539117	0.000000	-6.731948	2.183729	-3.082202	4.414944	0.077055	26.503247	-14.221709	0.000000	-0.250466	1.126127	1.679497	-0.465140	1.497749	1.784466	-0.411490	2.738066	1.784466	-0.286257	2.738066	1.469560	-0.232582	2.296399	1.364592	-0.143116	1.744371	1.259623	-1.789051	12.738977	9.340860	0.000000	0.000000	26.290675	-4.709488	24.025171	3.417821	-19.465055	110.414633	9.405553	4.518752	-8.070722	-10.867211	40.566638	-6.751582	4.824919	140.481382	89.258701	9.831550	-0.725855
2.474576	4.981265	0.329631	78.671867	0.314911	1.064342	0.404899	-2.842654	-3.455685	-0.162272	9.960001	0.173835	29.434032	15.565453	0.000000	-6.639498	2.268244	-2.766220	4.282004	0.074735	26.420079	-14.319396	0.000000	-0.242127	1.112797	1.632178	-0.449654	1.480020	1.734190	-0.397790	2.705654	1.734190	-0.276727	2.705654	1.428156	-0.224839	2.269215	1.326145	-0.138351	1.723722	1.224134	-1.729488	12.588180	9.077687	0.000000	0.000000	26.500379	-4.538868	24.289794	3.535073	-19.349795	110.776288	9.335804	4.456607	-8.150173	-10.778381	40.554455	-6.755613	4.901497	140.473582	89.269606	9.738322	-1.539259
2.491525	4.890134	0.205333	78.964493	0.314661	1.063952	0.405197	-2.723177	-3.506788	-0.441140	9.958398	0.173807	29.466662	15.563331	0.000000	-6.513953	2.318088	-2.396744	4.195407	0.073224	26.377583	-14.372676	0.000000	-0.234754	1.103313	1.590096	-0.435962	1.467407	1.689477	-0.385677	2.682596	1.689477	-0.268300	2.682596	1.391334	-0.217993	2.249877	1.291953	-0.134138	1.709032	1.192572	-1.676825	12.480901	8.843639	0.000000	0.000000	26.701336	-4.457552	24.493568	3.613493	-19.253844	111.052709	9.257025	4.375680	-8.219759	-10.690760	40.679697	-6.707784	5.007555	140.363220	89.271613	9.435466	-2.055645
2.508475	4.828041	0.085718	79.327847	0.314275	1.063590	0.405626	-2.611932	-3.524141	-0.752444	9.949797	0.173657	29.505480	15.517396	0.000000	-6.369361	2.335473	-1.895156	4.139616	0.072250	26.338573	-14.503749	0.000000	-0.228028	1.098099	1.557222	-0.423471	1.460472	1.654548	-0.374628	2.669919	1.654548	-0.260613	2.669919	1.362569	-0.211747	2.239244	1.265243	-0.130295	1.700956	1.167916	-1.628783	12.421919	8.660800	0.000000	0.000000	26.880962	-4.478709	24.611265	3.636147	-19.183675	111.176989	9.176605	4.288548	-8.277875	-10.607057	40.930072	-6.590280	5.145123	140.154693	89.265730	8.937200	-2.255588
